<?xml version="1.0" encoding="UTF-8"?>
<!DOCTYPE svg PUBLIC "-//W3C//DTD SVG 1.1//EN" "http://www.w3.org/Graphics/SVG/1.1/DTD/svg11.dtd">
<!-- Creator: CorelDRAW -->
<svg xmlns="http://www.w3.org/2000/svg" xml:space="preserve" width="74.9111mm" height="42.1749mm" version="1.1" style="shape-rendering:geometricPrecision; text-rendering:geometricPrecision; image-rendering:optimizeQuality; fill-rule:evenodd; clip-rule:evenodd"
viewBox="0 0 1433.78 807.22"
 xmlns:xlink="http://www.w3.org/1999/xlink"
 xmlns:xodm="http://www.corel.com/coreldraw/odm/2003">
 <defs>
  <style type="text/css">
   <![CDATA[
    .str0 {stroke:white;stroke-width:3.83;stroke-miterlimit:22.9256}
    .str1 {stroke:white;stroke-width:3.83;stroke-linecap:round;stroke-linejoin:round;stroke-miterlimit:22.9256}
    .str2 {stroke:white;stroke-width:3.83;stroke-miterlimit:10}
    .fil1 {fill:none}
    .fil5 {fill:#FAB06E}
    .fil6 {fill:#F6F3AC}
    .fil0 {fill:#E3EFD5}
    .fil2 {fill:#B2D897}
    .fil4 {fill:#8ED6EA}
    .fil3 {fill:#88BCE5}
   ]]>
  </style>
    <clipPath id="id0">
     <path d="M1153.26 222.8c-1.67,0 -3.33,-0.06 -4.97,-0.14 1.67,0.09 3.33,0.14 4.97,0.14 14.35,0 27.91,-3.31 40.02,-9.17 -8.94,4.37 -18.69,7.3 -28.89,8.51 -3.74,0.43 -7.45,0.66 -11.12,0.66l0 0zm82.16 -50.88c6.84,-13.71 10.32,-29.35 9.46,-45.88 0.29,5.26 0.11,10.66 -0.52,16.16 -1.23,10.52 -4.34,20.55 -8.94,29.72l0 0z"/>
    </clipPath>
 </defs>
 <g id="Capa_x0020_1">
  <metadata id="CorelCorpID_0Corel-Layer"/>
  <g id="_1405985598112">
   <path class="fil0 str0" d="M1282.89 523.96l-511.04 -430.97c-20.88,-17.5 -46.57,-28.19 -77.9,-30.18 -8.52,55.03 -8.36,108.93 11.34,160.25 16.97,41.63 45.18,63.38 78.22,76.58 41.63,18.73 83.64,35.98 124.9,56.18 14.21,10.02 18.48,24.53 19.35,40.58 -0.49,16.76 -2.99,32.87 -4.49,49.31 -2.23,37.6 5.92,64.76 21.38,82.94 6.25,7.28 14.57,9.29 23.49,9.76 5.97,-0.25 11.82,-0.96 17.56,-2.1 21.32,-4.49 42.62,-6.03 63.93,-6.1 29.08,0.38 56.61,4.01 82.34,11.4 47.42,-14.85 96.85,-23.45 150.93,-17.65z"/>
   <path class="fil1 str0" d="M1131.96 541.61c-38.41,12.46 -74.25,28.61 -108.23,47.42 -45.61,25.59 -89.75,37.98 -132.77,40.51 -83.41,-0.03 -150.11,-59.84 -243.78,-186.09 -48.04,-60.77 -94.23,-124.64 -160.7,-167.12 -11.3,-7.19 -22.81,-14.03 -34.73,-20.22 -12.36,-7.28 -12.15,-23.59 -3.31,-30.18l157.68 -132.98c25.94,-20.76 55.18,-30.94 87.81,-30.15"/>
   <path class="fil2 str0" d="M890.97 629.54l-0.03 0c-99.89,-0.01 -169.76,-90.4 -243.74,-186.09 -48.56,-62.82 -98.77,-127.78 -160.7,-167.12 -11.36,-7.22 -22.96,-13.96 -34.73,-20.22 -11.49,-6.1 -13.26,-21.79 -3.31,-30.18l157.68 -132.98c23.94,-20.18 53.39,-30.28 82.86,-30.28 1.73,0 3.46,0.03 5.18,0.11 -9.09,56.56 -6.77,117.32 11.29,160.3 20.82,49.68 50.36,64.15 78.21,76.56 39.56,17.64 79.13,35.22 118.69,52.86 10.74,4.82 23.92,15.71 25.38,43.9 0.88,16.79 -3.13,32.61 -4.34,49.34 -2.55,35.39 8.31,69.81 21.22,82.91 7.54,7.63 15.58,9.82 23.71,9.82 5.78,0 11.61,-1.11 17.33,-2.17 22.16,-4.03 43.45,-6.04 64.08,-6.04 28.49,0 55.74,3.81 82.39,11.37 -34.97,11.11 -71.19,26.92 -108.44,47.38 -48.91,26.87 -93.58,40.49 -132.77,40.51zm392.08 -105.48l-511.19 -431.1 481.51 406.07 29.68 25.03zm-34.12 -1.94c0.01,0 0.03,0 0.04,0 -0.01,0 -0.03,0 -0.04,0z"/>
   <path class="fil3 str1" d="M37.21 571.88c31.08,-86.39 83.3,-150.55 193.84,-153.34 61.53,1.2 118.7,21.53 172.8,55.24 36.97,24.48 74.33,66.23 112.01,123.14 102.73,156.57 198.56,212.48 290.26,208.16 78.92,-3.53 158.34,-29.13 247.03,-80.19 67.75,-38.86 139.44,-68.32 215.9,-69.49 44.45,-0.99 89.78,11.25 136.49,44.27 2.43,2.06 5.28,2.67 8.38,2.74 6.53,0.15 9.25,-0.15 10.52,-0.94l-83.69 -81.25 -215.94 23.57 -291.64 81.79 -151.19 -102.65 -304.72 -298.76 -211.6 -20.61 -143.08 110.68 14.64 157.64z"/>
   <path class="fil4 str0" d="M831.78 755.43c-124.7,0.01 -177.47,-97.32 -219.35,-143.21 -50.45,-55.29 -180.1,-277.92 -357.61,-277.92 -10.86,0 -21.9,0.83 -33.13,2.59 -194.47,30.46 -184.49,234.99 -184.49,234.99 -2.2,6.69 -7.91,9.86 -13.67,9.86 -6.69,0 -13.45,-4.27 -14.88,-12.3 -36.66,-206.31 81.19,-307.88 229.69,-307.88 70.08,0 147.01,22.64 217.72,67.57 142.46,90.53 230.53,362.62 436.8,362.61 47.08,0 100.34,-14.18 161.8,-47.94 74.51,-40.93 140.34,-59.47 196.63,-59.47 78.47,0 138.39,36.04 177.34,97.7 6.55,10.37 2.14,16.41 -4.21,19.45l0 0c-57.35,-48.25 -108.97,-67.13 -163.79,-67.13 -83.98,0 -175.47,44.31 -306.55,95.2 -47.22,18.33 -87.57,25.89 -122.31,25.89z"/>
   <path class="fil4 str2" d="M296.6 533.71c-178.3,-35.67 -237.35,126.12 -189.78,235.24 6.1,13.98 26.08,11.12 28.2,-3.99 9.37,-67.04 68.87,-137.43 151.94,-137.64 90.05,-0.24 175.36,117.26 276.88,172.94 15.5,8.51 30.36,-12.28 17.03,-23.9 -99.71,-86.93 -170.48,-219.88 -284.27,-242.65z"/>
   <g style="clip-path:url(#id0)">
    <image x="1146.18" y="123.72" width="101.42" height="101.42" xlink:href="favicon_Images\favicon_ImgID1.png"/>
   </g>
   <circle class="fil5 str0" cx="1164" cy="103.44" r="101.53"/>
   <path class="fil6 str0" d="M1224.36 21.79c8.75,90.13 -32.93,140.91 -146.31,135.72 16.66,27.91 54.24,51.1 90.76,47.35 34.91,-3.58 65,-23.84 79.91,-47.66 13.28,-21.21 20.32,-46.08 15.28,-71.43 -4.46,-22.42 -17.7,-49.28 -39.64,-63.98z"/>
  </g>
 </g>
</svg>
